<svg width="820" height="520" viewBox="0 0 820 520" fill="none" xmlns="http://www.w3.org/2000/svg">
  <defs>
    <linearGradient id="g1" x1="0" y1="0" x2="1" y2="1">
      <stop offset="0" stop-color="#4F46E5"/>
      <stop offset="1" stop-color="#22D3EE"/>
    </linearGradient>
  </defs>
  <rect x="20" y="20" width="780" height="480" rx="28" fill="#0F172A" stroke="#1F2937" stroke-width="2"/>
  <rect x="60" y="70" width="520" height="320" rx="18" fill="#111827" stroke="#1F2937"/>
  <rect x="600" y="70" width="160" height="60" rx="12" fill="url(#g1)"/>
  <rect x="600" y="150" width="160" height="60" rx="12" fill="#111827" stroke="#1F2937"/>
  <rect x="600" y="230" width="160" height="60" rx="12" fill="#111827" stroke="#1F2937"/>
  <rect x="600" y="310" width="160" height="80" rx="12" fill="#111827" stroke="#1F2937"/>
  <rect x="100" y="110" width="360" height="220" rx="12" fill="#0B1020" stroke="#1F2937"/>
  <rect x="120" y="130" width="160" height="18" rx="6" fill="#334155"/>
  <rect x="120" y="160" width="260" height="14" rx="6" fill="#1F2937"/>
  <rect x="120" y="184" width="240" height="14" rx="6" fill="#1F2937"/>
  <rect x="120" y="208" width="200" height="14" rx="6" fill="#1F2937"/>
  <rect x="120" y="250" width="260" height="60" rx="8" fill="#0B1020" stroke="#1F2937"/>
  <rect x="440" y="360" width="120" height="22" rx="6" fill="#1F2937"/>
  <circle cx="90" cy="90" r="6" fill="#EF4444"/>
  <circle cx="110" cy="90" r="6" fill="#F59E0B"/>
  <circle cx="130" cy="90" r="6" fill="#10B981"/>
</svg>
